<?xml version="1.0" encoding="utf-8"?>
<!-- Generator: Adobe Illustrator 27.2.0, SVG Export Plug-In . SVG Version: 6.00 Build 0)  -->
<svg version="1.1" id="l1" xmlns="http://www.w3.org/2000/svg" xmlns:xlink="http://www.w3.org/1999/xlink" x="0px" y="0px"
	 width="200px" height="60px" viewBox="0 0 200 60" enable-background="new 0 0 200 60" xml:space="preserve">
<g>
	<path fill="#8D0C19" d="M66.2,2.3l-0.6,1.9c-2.7,0.4-5,1.1-6.9,2.1c-1,0.5-3,1.7-5.8,3.6L37.4,20.2L47,38.7c1,1.7,1.8,2.8,2.5,3.4
		c1.4,1.2,3.4,1.8,5.8,1.8l-0.6,1.7H30.3l0.7-1.7c1,0,1.7,0,2.1,0c2.6,0,3.9-0.7,3.9-2.1c0-0.7-0.3-1.4-0.9-2.3l-7.7-14.2l-3.8,2.4
		l-4.4,11.9c-0.3,0.8-0.5,1.4-0.5,1.9c0,0.8,0.5,1.4,1.5,1.8c1,0.4,2.6,0.6,4.7,0.6l-0.6,1.7h-23l0.5-1.7c2.5,0,4.1-0.6,4.8-1.9
		c0.3-0.5,0.8-1.9,1.6-4.3l10.9-25.5c0.1-0.1,0.5-1.2,1.3-3.4C21.8,7.8,22,7,22,6.5c0-0.8-0.5-1.4-1.4-1.7c-0.9-0.4-2.6-0.5-5-0.5
		l0.6-1.9h26.9l-0.7,1.9c-0.3,0-0.7,0-1.1,0c-0.4,0-0.7,0-0.9,0c-4,0-6.5,1.3-7.6,3.8l-7.1,16.4l24.3-16c1.8-1,2.7-1.8,2.7-2.5
		c0-0.9-1.7-1.5-5.2-1.8l0.6-1.9H66.2z"/>
	<path fill="#8D0C19" stroke="#8D0C19" stroke-width="0.25" d="M87.7,21.8c0,7.3-3.7,15.1-11,23.4c-7.3,8.3-14,12.5-20.2,12.5
		c-3.3,0-4.9-1.3-4.9-4c0-0.8,0.3-1.5,1-2c0.7-0.5,1.5-0.8,2.6-0.8c1.2,0,2.3,0.4,3.3,1.2c1.1,0.8,2.1,1.2,3,1.2
		c1.8,0,3.7-0.8,5.5-2.5c1.9-1.7,2.8-3.4,2.8-5.3l-2.6-19.8c-0.1-1.2-0.4-2.1-0.9-2.7c-0.5-0.7-1-1-1.7-1c-0.8,0-1.4,0.4-2,1.3
		c-0.6,0.8-1,2.2-1.3,4h-1.6c0.5-3.6,1.5-6.3,3-8.2c1.3-1.7,2.8-2.6,4.4-2.6c1.3,0,2.5,0.6,3.5,1.7c1,1.1,1.7,2.6,2.1,4.6l2.7,19.8
		c1.5-1.1,3.2-2.9,4.9-5.5c2-3,3-5.4,3-7.4c0-1.2-0.6-2.6-1.9-4.4c-1.3-1.7-1.9-3.3-1.9-4.8c0-1.1,0.3-2.1,0.8-3
		c0.6-0.9,1.4-1.3,2.6-1.3c1.2,0,2.4,0.5,3.4,1.5C87.2,18.7,87.7,20.1,87.7,21.8z"/>
	<path fill="#8D0C19" d="M129.4,28.8c0,4.7-1.9,8.8-5.7,12.3c-4.1,3.7-9.4,5.6-15.8,5.6c-4.1,0-7.2-1.1-9.5-3.2
		c-2.3-2.2-3.4-4.8-3.4-8c0-4.6,1.8-8.6,5.3-12.1c4-3.9,9.3-5.9,15.8-5.9c4.4,0,7.7,1,9.9,3.1C128.3,22.7,129.4,25.4,129.4,28.8z
		 M121.4,23.4c0-1.3-0.3-2.2-0.8-3c-0.5-0.7-1.4-1.1-2.6-1.1c-3.6,0-6.9,2.8-10.1,8.3c-2.8,4.9-4.2,9.4-4.2,13.4
		c0,2.6,1.1,3.9,3.2,3.9c2.8,0,5.9-2.6,9.3-7.9C119.7,32,121.4,27.4,121.4,23.4z"/>
	<path fill="#8D0C19" d="M169.2,22.4c0,3.6-2.9,6.6-8.8,8.9c-7,2-11.5,3.4-13.6,4.2c-0.2,1-0.4,1.9-0.6,3c-0.2,1-0.3,1.8-0.3,2.3
		c0,1.2,0.3,2,0.8,2.5c0.5,0.5,1.5,0.7,2.9,0.7c1.7,0,3.5-0.6,5.6-1.8c2.6-1.4,5-3.5,7.4-6.3l1.9,0.9c-1.5,2.4-3.5,4.5-6.1,6.2
		c-3.5,2.4-7.2,3.6-11.1,3.6c-3.3,0-5.8-0.7-7.5-2.1c-1.9-1.5-2.9-3.8-2.9-6.8c0-5.3,2.9-10.1,8.6-14.4c5.2-3.9,10-5.8,14.5-5.8
		c2.4,0,4.5,0.4,6.3,1.2C168.3,19.6,169.2,20.8,169.2,22.4z M161.2,22.6c0-0.8-0.3-1.5-1-2.1c-0.7-0.6-1.4-0.9-2.2-0.9
		c-1.7,0-3.4,1.1-5.3,3.4c-1.9,2.3-3.7,5.6-5.3,9.9c3.5-0.4,6.7-1.7,9.5-3.9C159.7,26.9,161.2,24.7,161.2,22.6z"/>
	<path fill="#8D0C19" d="M196,36.9c-3.1,4.2-6.1,7-8.8,8.4c-1.8,0.9-4.4,1.4-7.8,1.4c-1,0-1.8-0.3-2.4-0.9c-0.6-0.6-0.9-1.3-0.9-2.2
		c0-1.5,0.6-3.2,1.9-5.2l7.5-13.1c0.3-0.5,0.4-1,0.4-1.5c0-0.9-0.4-1.4-1.2-1.4c-1.2,0-2.5,0.8-4,2.4l-4.2,4.3l-2.1-0.9
		c6.1-7.1,11-10.6,14.8-10.6c1.9,0,3.2,0.4,4.1,1.1c0.9,0.7,1.3,1.6,1.3,2.7c0,0.8-0.1,1.5-0.4,2.3c-0.2,0.7-0.6,1.6-1.2,2.6
		l-7.7,13.1c-0.1,0.5-0.3,1-0.4,1.4c-0.1,0.4-0.1,0.7-0.1,1c0,0.6,0.3,0.9,1,0.9c0.7,0,2-0.8,3.7-2.3c1.4-1.3,2.8-2.7,4.3-4.3
		L196,36.9z M197.7,7.7c0,1-0.4,1.9-1.3,2.6c-0.9,0.7-2.2,1.1-3.9,1.1c-1.6,0-2.9-0.4-3.8-1.1c-0.9-0.7-1.4-1.6-1.4-2.5
		c0-1,0.5-1.8,1.4-2.5c0.9-0.7,2.2-1.1,3.8-1.1c1.7,0,2.9,0.4,3.8,1.1C197.3,5.9,197.7,6.7,197.7,7.7z"/>
</g>
</svg>
